<mxfile host="app.diagrams.net" modified="2021-11-04T21:13:24.595Z" agent="5.0 (Windows NT 10.0; Win64; x64) AppleWebKit/537.36 (KHTML, like Gecko) Chrome/94.0.4606.81 Safari/537.36 OPR/80.0.4170.61" etag="JpjIiU10bBgrQ2NoiyVk" version="15.6.8" type="github">
  <diagram id="DqSAR1eta4Aplh36VHJp" name="Page-1">
    <mxGraphModel dx="1973" dy="2305" grid="1" gridSize="10" guides="1" tooltips="1" connect="1" arrows="1" fold="1" page="1" pageScale="1" pageWidth="827" pageHeight="1169" math="0" shadow="0">
      <root>
        <mxCell id="0" />
        <mxCell id="1" parent="0" />
        <mxCell id="0AynTZlASmMQr-Qh1-zb-100" style="edgeStyle=orthogonalEdgeStyle;rounded=0;orthogonalLoop=1;jettySize=auto;html=1;exitX=0.5;exitY=1;exitDx=0;exitDy=0;endArrow=none;endFill=0;" parent="1" source="0AynTZlASmMQr-Qh1-zb-62" edge="1">
          <mxGeometry relative="1" as="geometry">
            <mxPoint x="310" y="310" as="targetPoint" />
          </mxGeometry>
        </mxCell>
        <mxCell id="0AynTZlASmMQr-Qh1-zb-127" style="edgeStyle=orthogonalEdgeStyle;rounded=0;orthogonalLoop=1;jettySize=auto;html=1;exitX=0.5;exitY=0;exitDx=0;exitDy=0;entryX=0.5;entryY=1;entryDx=0;entryDy=0;endArrow=none;endFill=0;" parent="1" source="0AynTZlASmMQr-Qh1-zb-62" target="0AynTZlASmMQr-Qh1-zb-126" edge="1">
          <mxGeometry relative="1" as="geometry" />
        </mxCell>
        <mxCell id="0AynTZlASmMQr-Qh1-zb-179" style="edgeStyle=orthogonalEdgeStyle;rounded=0;orthogonalLoop=1;jettySize=auto;html=1;exitX=0;exitY=0;exitDx=0;exitDy=0;entryX=0.5;entryY=1;entryDx=0;entryDy=0;endArrow=none;endFill=0;" parent="1" source="0AynTZlASmMQr-Qh1-zb-62" target="0AynTZlASmMQr-Qh1-zb-178" edge="1">
          <mxGeometry relative="1" as="geometry" />
        </mxCell>
        <mxCell id="0AynTZlASmMQr-Qh1-zb-181" style="edgeStyle=orthogonalEdgeStyle;rounded=0;orthogonalLoop=1;jettySize=auto;html=1;exitX=0.25;exitY=0;exitDx=0;exitDy=0;entryX=0.5;entryY=1;entryDx=0;entryDy=0;endArrow=none;endFill=0;" parent="1" source="0AynTZlASmMQr-Qh1-zb-62" target="0AynTZlASmMQr-Qh1-zb-180" edge="1">
          <mxGeometry relative="1" as="geometry" />
        </mxCell>
        <mxCell id="0AynTZlASmMQr-Qh1-zb-183" style="edgeStyle=orthogonalEdgeStyle;rounded=0;orthogonalLoop=1;jettySize=auto;html=1;exitX=0.75;exitY=0;exitDx=0;exitDy=0;endArrow=none;endFill=0;" parent="1" source="0AynTZlASmMQr-Qh1-zb-62" edge="1">
          <mxGeometry relative="1" as="geometry">
            <mxPoint x="340" y="-110" as="targetPoint" />
          </mxGeometry>
        </mxCell>
        <mxCell id="0AynTZlASmMQr-Qh1-zb-190" style="edgeStyle=orthogonalEdgeStyle;rounded=0;orthogonalLoop=1;jettySize=auto;html=1;exitX=1;exitY=0;exitDx=0;exitDy=0;entryX=0;entryY=0.5;entryDx=0;entryDy=0;endArrow=none;endFill=0;" parent="1" source="0AynTZlASmMQr-Qh1-zb-62" target="0AynTZlASmMQr-Qh1-zb-187" edge="1">
          <mxGeometry relative="1" as="geometry" />
        </mxCell>
        <mxCell id="0AynTZlASmMQr-Qh1-zb-62" value="USUÁRIO" style="rounded=0;whiteSpace=wrap;html=1;" parent="1" vertex="1">
          <mxGeometry x="250" y="-90" width="120" height="60" as="geometry" />
        </mxCell>
        <mxCell id="0AynTZlASmMQr-Qh1-zb-101" style="edgeStyle=orthogonalEdgeStyle;rounded=0;orthogonalLoop=1;jettySize=auto;html=1;exitX=0.5;exitY=1;exitDx=0;exitDy=0;endArrow=none;endFill=0;" parent="1" target="0AynTZlASmMQr-Qh1-zb-70" edge="1">
          <mxGeometry relative="1" as="geometry">
            <mxPoint x="310" y="270" as="sourcePoint" />
          </mxGeometry>
        </mxCell>
        <mxCell id="0AynTZlASmMQr-Qh1-zb-146" style="edgeStyle=orthogonalEdgeStyle;rounded=0;orthogonalLoop=1;jettySize=auto;html=1;exitX=1;exitY=0.5;exitDx=0;exitDy=0;endArrow=none;endFill=0;" parent="1" source="0AynTZlASmMQr-Qh1-zb-70" target="0AynTZlASmMQr-Qh1-zb-74" edge="1">
          <mxGeometry relative="1" as="geometry" />
        </mxCell>
        <mxCell id="0AynTZlASmMQr-Qh1-zb-70" value="ASSISTE" style="rhombus;whiteSpace=wrap;html=1;" parent="1" vertex="1">
          <mxGeometry x="250" y="340" width="120" height="80" as="geometry" />
        </mxCell>
        <mxCell id="0AynTZlASmMQr-Qh1-zb-81" style="edgeStyle=orthogonalEdgeStyle;rounded=0;orthogonalLoop=1;jettySize=auto;html=1;exitX=0.5;exitY=1;exitDx=0;exitDy=0;endArrow=none;endFill=0;" parent="1" source="0AynTZlASmMQr-Qh1-zb-74" edge="1">
          <mxGeometry relative="1" as="geometry">
            <mxPoint x="750" y="490" as="targetPoint" />
          </mxGeometry>
        </mxCell>
        <mxCell id="xnUeOdPYaHrSIj6luqp0-1" style="edgeStyle=orthogonalEdgeStyle;rounded=0;orthogonalLoop=1;jettySize=auto;html=1;exitX=0;exitY=1;exitDx=0;exitDy=0;endArrow=none;endFill=0;startArrow=none;" parent="1" source="xnUeOdPYaHrSIj6luqp0-3" edge="1">
          <mxGeometry relative="1" as="geometry">
            <mxPoint x="690" y="450" as="targetPoint" />
          </mxGeometry>
        </mxCell>
        <mxCell id="xnUeOdPYaHrSIj6luqp0-7" style="edgeStyle=orthogonalEdgeStyle;rounded=0;orthogonalLoop=1;jettySize=auto;html=1;exitX=0.5;exitY=1;exitDx=0;exitDy=0;entryX=0.5;entryY=0;entryDx=0;entryDy=0;endArrow=none;endFill=0;" parent="1" source="0AynTZlASmMQr-Qh1-zb-74" target="xnUeOdPYaHrSIj6luqp0-6" edge="1">
          <mxGeometry relative="1" as="geometry" />
        </mxCell>
        <mxCell id="xnUeOdPYaHrSIj6luqp0-10" style="edgeStyle=orthogonalEdgeStyle;rounded=0;orthogonalLoop=1;jettySize=auto;html=1;exitX=1;exitY=1;exitDx=0;exitDy=0;endArrow=none;endFill=0;" parent="1" source="0AynTZlASmMQr-Qh1-zb-74" edge="1">
          <mxGeometry relative="1" as="geometry">
            <mxPoint x="809.8333333333335" y="430" as="targetPoint" />
          </mxGeometry>
        </mxCell>
        <mxCell id="cy-2hxa1i92hY7S0N-3x-6" style="edgeStyle=orthogonalEdgeStyle;rounded=0;orthogonalLoop=1;jettySize=auto;html=1;exitX=1;exitY=0;exitDx=0;exitDy=0;entryX=0.5;entryY=1;entryDx=0;entryDy=0;endArrow=none;endFill=0;" edge="1" parent="1" source="0AynTZlASmMQr-Qh1-zb-74" target="0AynTZlASmMQr-Qh1-zb-114">
          <mxGeometry relative="1" as="geometry">
            <Array as="points">
              <mxPoint x="810" y="390" />
              <mxPoint x="1080" y="390" />
            </Array>
          </mxGeometry>
        </mxCell>
        <mxCell id="0AynTZlASmMQr-Qh1-zb-74" value="ANIMES" style="rounded=0;whiteSpace=wrap;html=1;" parent="1" vertex="1">
          <mxGeometry x="690" y="350" width="120" height="60" as="geometry" />
        </mxCell>
        <mxCell id="0AynTZlASmMQr-Qh1-zb-80" style="edgeStyle=orthogonalEdgeStyle;rounded=0;orthogonalLoop=1;jettySize=auto;html=1;exitX=1;exitY=0.5;exitDx=0;exitDy=0;endArrow=none;endFill=0;" parent="1" source="0AynTZlASmMQr-Qh1-zb-78" target="0AynTZlASmMQr-Qh1-zb-79" edge="1">
          <mxGeometry relative="1" as="geometry" />
        </mxCell>
        <mxCell id="0AynTZlASmMQr-Qh1-zb-158" style="edgeStyle=orthogonalEdgeStyle;rounded=0;orthogonalLoop=1;jettySize=auto;html=1;exitX=0.5;exitY=0;exitDx=0;exitDy=0;entryX=1;entryY=0.5;entryDx=0;entryDy=0;endArrow=none;endFill=0;" parent="1" source="0AynTZlASmMQr-Qh1-zb-78" target="0AynTZlASmMQr-Qh1-zb-62" edge="1">
          <mxGeometry relative="1" as="geometry" />
        </mxCell>
        <mxCell id="0AynTZlASmMQr-Qh1-zb-78" value="LÊ" style="rhombus;whiteSpace=wrap;html=1;" parent="1" vertex="1">
          <mxGeometry x="460" y="200" width="120" height="80" as="geometry" />
        </mxCell>
        <mxCell id="0AynTZlASmMQr-Qh1-zb-93" style="edgeStyle=orthogonalEdgeStyle;rounded=0;orthogonalLoop=1;jettySize=auto;html=1;exitX=0.5;exitY=0;exitDx=0;exitDy=0;endArrow=none;endFill=0;" parent="1" source="0AynTZlASmMQr-Qh1-zb-79" edge="1">
          <mxGeometry relative="1" as="geometry">
            <mxPoint x="750" y="120" as="targetPoint" />
          </mxGeometry>
        </mxCell>
        <mxCell id="0AynTZlASmMQr-Qh1-zb-192" style="edgeStyle=orthogonalEdgeStyle;rounded=0;orthogonalLoop=1;jettySize=auto;html=1;exitX=0;exitY=0;exitDx=0;exitDy=0;entryX=0.5;entryY=1;entryDx=0;entryDy=0;endArrow=none;endFill=0;" parent="1" source="0AynTZlASmMQr-Qh1-zb-79" target="0AynTZlASmMQr-Qh1-zb-191" edge="1">
          <mxGeometry relative="1" as="geometry" />
        </mxCell>
        <mxCell id="0AynTZlASmMQr-Qh1-zb-201" style="edgeStyle=orthogonalEdgeStyle;rounded=0;orthogonalLoop=1;jettySize=auto;html=1;exitX=1;exitY=0;exitDx=0;exitDy=0;entryX=0.5;entryY=1;entryDx=0;entryDy=0;endArrow=none;endFill=0;" parent="1" source="0AynTZlASmMQr-Qh1-zb-79" target="0AynTZlASmMQr-Qh1-zb-198" edge="1">
          <mxGeometry relative="1" as="geometry" />
        </mxCell>
        <mxCell id="0AynTZlASmMQr-Qh1-zb-203" style="edgeStyle=orthogonalEdgeStyle;rounded=0;orthogonalLoop=1;jettySize=auto;html=1;exitX=0.25;exitY=0;exitDx=0;exitDy=0;endArrow=none;endFill=0;" parent="1" source="0AynTZlASmMQr-Qh1-zb-79" edge="1">
          <mxGeometry relative="1" as="geometry">
            <mxPoint x="740" y="190" as="targetPoint" />
          </mxGeometry>
        </mxCell>
        <mxCell id="xnUeOdPYaHrSIj6luqp0-93" style="edgeStyle=orthogonalEdgeStyle;rounded=0;orthogonalLoop=1;jettySize=auto;html=1;exitX=1;exitY=0.5;exitDx=0;exitDy=0;entryX=0;entryY=0.5;entryDx=0;entryDy=0;endArrow=none;endFill=0;" parent="1" source="0AynTZlASmMQr-Qh1-zb-79" target="0AynTZlASmMQr-Qh1-zb-114" edge="1">
          <mxGeometry relative="1" as="geometry" />
        </mxCell>
        <mxCell id="0AynTZlASmMQr-Qh1-zb-79" value="MANGÁS" style="rounded=0;whiteSpace=wrap;html=1;" parent="1" vertex="1">
          <mxGeometry x="690" y="210" width="120" height="60" as="geometry" />
        </mxCell>
        <mxCell id="0AynTZlASmMQr-Qh1-zb-140" style="edgeStyle=orthogonalEdgeStyle;rounded=0;orthogonalLoop=1;jettySize=auto;html=1;exitX=0.5;exitY=1;exitDx=0;exitDy=0;entryX=0.5;entryY=0;entryDx=0;entryDy=0;endArrow=none;endFill=0;" parent="1" source="0AynTZlASmMQr-Qh1-zb-82" target="0AynTZlASmMQr-Qh1-zb-84" edge="1">
          <mxGeometry relative="1" as="geometry" />
        </mxCell>
        <mxCell id="0AynTZlASmMQr-Qh1-zb-82" value="TEM" style="rhombus;whiteSpace=wrap;html=1;" parent="1" vertex="1">
          <mxGeometry x="690" y="490" width="120" height="80" as="geometry" />
        </mxCell>
        <mxCell id="0AynTZlASmMQr-Qh1-zb-86" style="edgeStyle=orthogonalEdgeStyle;rounded=0;orthogonalLoop=1;jettySize=auto;html=1;exitX=1;exitY=0.5;exitDx=0;exitDy=0;endArrow=none;endFill=0;" parent="1" source="0AynTZlASmMQr-Qh1-zb-84" target="0AynTZlASmMQr-Qh1-zb-85" edge="1">
          <mxGeometry relative="1" as="geometry" />
        </mxCell>
        <mxCell id="xnUeOdPYaHrSIj6luqp0-13" style="edgeStyle=orthogonalEdgeStyle;rounded=0;orthogonalLoop=1;jettySize=auto;html=1;exitX=0;exitY=1;exitDx=0;exitDy=0;entryX=0.5;entryY=0;entryDx=0;entryDy=0;endArrow=none;endFill=0;" parent="1" source="0AynTZlASmMQr-Qh1-zb-84" target="xnUeOdPYaHrSIj6luqp0-12" edge="1">
          <mxGeometry relative="1" as="geometry" />
        </mxCell>
        <mxCell id="xnUeOdPYaHrSIj6luqp0-15" style="edgeStyle=orthogonalEdgeStyle;rounded=0;orthogonalLoop=1;jettySize=auto;html=1;exitX=0.5;exitY=1;exitDx=0;exitDy=0;endArrow=none;endFill=0;startArrow=none;" parent="1" source="xnUeOdPYaHrSIj6luqp0-16" edge="1">
          <mxGeometry relative="1" as="geometry">
            <mxPoint x="750" y="780" as="targetPoint" />
          </mxGeometry>
        </mxCell>
        <mxCell id="xnUeOdPYaHrSIj6luqp0-20" style="edgeStyle=orthogonalEdgeStyle;rounded=0;orthogonalLoop=1;jettySize=auto;html=1;exitX=1;exitY=1;exitDx=0;exitDy=0;endArrow=none;endFill=0;startArrow=none;" parent="1" source="xnUeOdPYaHrSIj6luqp0-21" edge="1">
          <mxGeometry relative="1" as="geometry">
            <mxPoint x="810" y="730" as="targetPoint" />
          </mxGeometry>
        </mxCell>
        <mxCell id="0AynTZlASmMQr-Qh1-zb-84" value="TEMPORADAS" style="rounded=0;whiteSpace=wrap;html=1;" parent="1" vertex="1">
          <mxGeometry x="690" y="640" width="120" height="60" as="geometry" />
        </mxCell>
        <mxCell id="0AynTZlASmMQr-Qh1-zb-88" style="edgeStyle=orthogonalEdgeStyle;rounded=0;orthogonalLoop=1;jettySize=auto;html=1;exitX=1;exitY=0.5;exitDx=0;exitDy=0;entryX=0;entryY=0.5;entryDx=0;entryDy=0;endArrow=none;endFill=0;" parent="1" source="0AynTZlASmMQr-Qh1-zb-85" target="0AynTZlASmMQr-Qh1-zb-87" edge="1">
          <mxGeometry relative="1" as="geometry" />
        </mxCell>
        <mxCell id="0AynTZlASmMQr-Qh1-zb-85" value="TEM" style="rhombus;whiteSpace=wrap;html=1;" parent="1" vertex="1">
          <mxGeometry x="900" y="630" width="120" height="80" as="geometry" />
        </mxCell>
        <mxCell id="xnUeOdPYaHrSIj6luqp0-25" style="edgeStyle=orthogonalEdgeStyle;rounded=0;orthogonalLoop=1;jettySize=auto;html=1;exitX=0;exitY=1;exitDx=0;exitDy=0;endArrow=none;endFill=0;" parent="1" source="0AynTZlASmMQr-Qh1-zb-87" target="xnUeOdPYaHrSIj6luqp0-23" edge="1">
          <mxGeometry relative="1" as="geometry" />
        </mxCell>
        <mxCell id="xnUeOdPYaHrSIj6luqp0-27" style="edgeStyle=orthogonalEdgeStyle;rounded=0;orthogonalLoop=1;jettySize=auto;html=1;exitX=0.5;exitY=1;exitDx=0;exitDy=0;endArrow=none;endFill=0;" parent="1" source="0AynTZlASmMQr-Qh1-zb-87" edge="1">
          <mxGeometry relative="1" as="geometry">
            <mxPoint x="1157" y="710" as="targetPoint" />
          </mxGeometry>
        </mxCell>
        <mxCell id="xnUeOdPYaHrSIj6luqp0-34" style="edgeStyle=orthogonalEdgeStyle;rounded=0;orthogonalLoop=1;jettySize=auto;html=1;exitX=1;exitY=1;exitDx=0;exitDy=0;entryX=0.5;entryY=0;entryDx=0;entryDy=0;endArrow=none;endFill=0;" parent="1" source="0AynTZlASmMQr-Qh1-zb-87" target="xnUeOdPYaHrSIj6luqp0-33" edge="1">
          <mxGeometry relative="1" as="geometry" />
        </mxCell>
        <mxCell id="0AynTZlASmMQr-Qh1-zb-87" value="EPISÓDIOS" style="rounded=0;whiteSpace=wrap;html=1;" parent="1" vertex="1">
          <mxGeometry x="1097" y="640" width="120" height="60" as="geometry" />
        </mxCell>
        <mxCell id="0AynTZlASmMQr-Qh1-zb-89" value="TEM" style="rhombus;whiteSpace=wrap;html=1;" parent="1" vertex="1">
          <mxGeometry x="690" y="40" width="120" height="80" as="geometry" />
        </mxCell>
        <mxCell id="0AynTZlASmMQr-Qh1-zb-94" style="edgeStyle=orthogonalEdgeStyle;rounded=0;orthogonalLoop=1;jettySize=auto;html=1;exitX=0.5;exitY=1;exitDx=0;exitDy=0;endArrow=none;endFill=0;" parent="1" source="0AynTZlASmMQr-Qh1-zb-91" target="0AynTZlASmMQr-Qh1-zb-89" edge="1">
          <mxGeometry relative="1" as="geometry" />
        </mxCell>
        <mxCell id="0AynTZlASmMQr-Qh1-zb-96" style="edgeStyle=orthogonalEdgeStyle;rounded=0;orthogonalLoop=1;jettySize=auto;html=1;exitX=1;exitY=0.5;exitDx=0;exitDy=0;entryX=0;entryY=0.5;entryDx=0;entryDy=0;endArrow=none;endFill=0;" parent="1" source="0AynTZlASmMQr-Qh1-zb-91" target="0AynTZlASmMQr-Qh1-zb-95" edge="1">
          <mxGeometry relative="1" as="geometry" />
        </mxCell>
        <mxCell id="0AynTZlASmMQr-Qh1-zb-209" style="edgeStyle=orthogonalEdgeStyle;rounded=0;orthogonalLoop=1;jettySize=auto;html=1;exitX=0;exitY=0;exitDx=0;exitDy=0;endArrow=none;endFill=0;startArrow=none;" parent="1" source="0AynTZlASmMQr-Qh1-zb-210" edge="1">
          <mxGeometry relative="1" as="geometry">
            <mxPoint x="690" y="-150" as="targetPoint" />
          </mxGeometry>
        </mxCell>
        <mxCell id="0AynTZlASmMQr-Qh1-zb-217" style="edgeStyle=orthogonalEdgeStyle;rounded=0;orthogonalLoop=1;jettySize=auto;html=1;exitX=1;exitY=0;exitDx=0;exitDy=0;entryX=0.5;entryY=1;entryDx=0;entryDy=0;endArrow=none;endFill=0;" parent="1" source="0AynTZlASmMQr-Qh1-zb-91" target="0AynTZlASmMQr-Qh1-zb-215" edge="1">
          <mxGeometry relative="1" as="geometry" />
        </mxCell>
        <mxCell id="0AynTZlASmMQr-Qh1-zb-222" style="edgeStyle=orthogonalEdgeStyle;rounded=0;orthogonalLoop=1;jettySize=auto;html=1;exitX=0.75;exitY=0;exitDx=0;exitDy=0;entryX=0.5;entryY=1;entryDx=0;entryDy=0;endArrow=none;endFill=0;" parent="1" source="0AynTZlASmMQr-Qh1-zb-91" target="0AynTZlASmMQr-Qh1-zb-218" edge="1">
          <mxGeometry relative="1" as="geometry" />
        </mxCell>
        <mxCell id="0AynTZlASmMQr-Qh1-zb-91" value="VOLUMES" style="rounded=0;whiteSpace=wrap;html=1;" parent="1" vertex="1">
          <mxGeometry x="690" y="-130" width="120" height="60" as="geometry" />
        </mxCell>
        <mxCell id="0AynTZlASmMQr-Qh1-zb-98" style="edgeStyle=orthogonalEdgeStyle;rounded=0;orthogonalLoop=1;jettySize=auto;html=1;exitX=1;exitY=0.5;exitDx=0;exitDy=0;entryX=0;entryY=0.5;entryDx=0;entryDy=0;endArrow=none;endFill=0;" parent="1" source="0AynTZlASmMQr-Qh1-zb-95" target="0AynTZlASmMQr-Qh1-zb-97" edge="1">
          <mxGeometry relative="1" as="geometry" />
        </mxCell>
        <mxCell id="0AynTZlASmMQr-Qh1-zb-95" value="TEM" style="rhombus;whiteSpace=wrap;html=1;" parent="1" vertex="1">
          <mxGeometry x="1020" y="-140" width="120" height="80" as="geometry" />
        </mxCell>
        <mxCell id="0AynTZlASmMQr-Qh1-zb-228" style="edgeStyle=orthogonalEdgeStyle;rounded=0;orthogonalLoop=1;jettySize=auto;html=1;exitX=1;exitY=0;exitDx=0;exitDy=0;endArrow=none;endFill=0;" parent="1" source="0AynTZlASmMQr-Qh1-zb-97" edge="1">
          <mxGeometry relative="1" as="geometry">
            <mxPoint x="1361" y="-140" as="targetPoint" />
          </mxGeometry>
        </mxCell>
        <mxCell id="0AynTZlASmMQr-Qh1-zb-234" style="edgeStyle=orthogonalEdgeStyle;rounded=0;orthogonalLoop=1;jettySize=auto;html=1;exitX=0;exitY=0;exitDx=0;exitDy=0;endArrow=none;endFill=0;" parent="1" source="0AynTZlASmMQr-Qh1-zb-97" edge="1">
          <mxGeometry relative="1" as="geometry">
            <mxPoint x="1241" y="-150" as="targetPoint" />
          </mxGeometry>
        </mxCell>
        <mxCell id="0AynTZlASmMQr-Qh1-zb-241" style="edgeStyle=orthogonalEdgeStyle;rounded=0;orthogonalLoop=1;jettySize=auto;html=1;exitX=0.5;exitY=0;exitDx=0;exitDy=0;entryX=0.5;entryY=1;entryDx=0;entryDy=0;endArrow=none;endFill=0;" parent="1" source="0AynTZlASmMQr-Qh1-zb-97" target="0AynTZlASmMQr-Qh1-zb-237" edge="1">
          <mxGeometry relative="1" as="geometry" />
        </mxCell>
        <mxCell id="0AynTZlASmMQr-Qh1-zb-97" value="CAPÍTULOS" style="rounded=0;whiteSpace=wrap;html=1;" parent="1" vertex="1">
          <mxGeometry x="1241" y="-130" width="120" height="60" as="geometry" />
        </mxCell>
        <mxCell id="cy-2hxa1i92hY7S0N-3x-2" style="edgeStyle=orthogonalEdgeStyle;rounded=0;orthogonalLoop=1;jettySize=auto;html=1;exitX=1;exitY=0.5;exitDx=0;exitDy=0;entryX=0;entryY=0.5;entryDx=0;entryDy=0;endArrow=none;endFill=0;" edge="1" parent="1" source="0AynTZlASmMQr-Qh1-zb-114" target="0AynTZlASmMQr-Qh1-zb-149">
          <mxGeometry relative="1" as="geometry" />
        </mxCell>
        <mxCell id="0AynTZlASmMQr-Qh1-zb-114" value="TEM" style="rhombus;whiteSpace=wrap;html=1;" parent="1" vertex="1">
          <mxGeometry x="1020" y="80" width="120" height="80" as="geometry" />
        </mxCell>
        <mxCell id="0AynTZlASmMQr-Qh1-zb-129" style="edgeStyle=orthogonalEdgeStyle;rounded=0;orthogonalLoop=1;jettySize=auto;html=1;exitX=1;exitY=0.5;exitDx=0;exitDy=0;endArrow=none;endFill=0;" parent="1" source="0AynTZlASmMQr-Qh1-zb-126" target="0AynTZlASmMQr-Qh1-zb-128" edge="1">
          <mxGeometry relative="1" as="geometry" />
        </mxCell>
        <mxCell id="0AynTZlASmMQr-Qh1-zb-126" value="PARTICIPA" style="rhombus;whiteSpace=wrap;html=1;" parent="1" vertex="1">
          <mxGeometry x="250" y="-280" width="120" height="80" as="geometry" />
        </mxCell>
        <mxCell id="0AynTZlASmMQr-Qh1-zb-163" style="edgeStyle=orthogonalEdgeStyle;rounded=0;orthogonalLoop=1;jettySize=auto;html=1;exitX=0.25;exitY=0;exitDx=0;exitDy=0;endArrow=none;endFill=0;" parent="1" source="0AynTZlASmMQr-Qh1-zb-128" edge="1">
          <mxGeometry relative="1" as="geometry">
            <mxPoint x="589.8571428571431" y="-299.9999999999998" as="targetPoint" />
          </mxGeometry>
        </mxCell>
        <mxCell id="0AynTZlASmMQr-Qh1-zb-169" style="edgeStyle=orthogonalEdgeStyle;rounded=0;orthogonalLoop=1;jettySize=auto;html=1;exitX=0.75;exitY=0;exitDx=0;exitDy=0;endArrow=none;endFill=0;" parent="1" source="0AynTZlASmMQr-Qh1-zb-128" edge="1">
          <mxGeometry relative="1" as="geometry">
            <mxPoint x="650" y="-300" as="targetPoint" />
          </mxGeometry>
        </mxCell>
        <mxCell id="0AynTZlASmMQr-Qh1-zb-128" value="CLUBES" style="rounded=0;whiteSpace=wrap;html=1;" parent="1" vertex="1">
          <mxGeometry x="560" y="-270" width="120" height="60" as="geometry" />
        </mxCell>
        <mxCell id="xnUeOdPYaHrSIj6luqp0-67" style="edgeStyle=orthogonalEdgeStyle;rounded=0;orthogonalLoop=1;jettySize=auto;html=1;exitX=0;exitY=0;exitDx=0;exitDy=0;endArrow=none;endFill=0;startArrow=none;" parent="1" source="xnUeOdPYaHrSIj6luqp0-68" edge="1">
          <mxGeometry relative="1" as="geometry">
            <mxPoint x="1479" y="-135" as="targetPoint" />
          </mxGeometry>
        </mxCell>
        <mxCell id="xnUeOdPYaHrSIj6luqp0-72" style="edgeStyle=orthogonalEdgeStyle;rounded=0;orthogonalLoop=1;jettySize=auto;html=1;exitX=0.5;exitY=0;exitDx=0;exitDy=0;entryX=0.5;entryY=1;entryDx=0;entryDy=0;endArrow=none;endFill=0;" parent="1" source="0AynTZlASmMQr-Qh1-zb-148" target="xnUeOdPYaHrSIj6luqp0-71" edge="1">
          <mxGeometry relative="1" as="geometry" />
        </mxCell>
        <mxCell id="xnUeOdPYaHrSIj6luqp0-76" style="edgeStyle=orthogonalEdgeStyle;rounded=0;orthogonalLoop=1;jettySize=auto;html=1;exitX=1;exitY=0;exitDx=0;exitDy=0;endArrow=none;endFill=0;" parent="1" source="0AynTZlASmMQr-Qh1-zb-148" edge="1">
          <mxGeometry relative="1" as="geometry">
            <mxPoint x="1599" y="-125" as="targetPoint" />
          </mxGeometry>
        </mxCell>
        <mxCell id="cy-2hxa1i92hY7S0N-3x-16" style="edgeStyle=orthogonalEdgeStyle;rounded=0;orthogonalLoop=1;jettySize=auto;html=1;exitX=0.5;exitY=1;exitDx=0;exitDy=0;entryX=0.5;entryY=0;entryDx=0;entryDy=0;endArrow=none;endFill=0;" edge="1" parent="1" source="0AynTZlASmMQr-Qh1-zb-148" target="cy-2hxa1i92hY7S0N-3x-7">
          <mxGeometry relative="1" as="geometry" />
        </mxCell>
        <mxCell id="0AynTZlASmMQr-Qh1-zb-148" value="DESENHISTA" style="rounded=0;whiteSpace=wrap;html=1;" parent="1" vertex="1">
          <mxGeometry x="1479" y="-105" width="120" height="60" as="geometry" />
        </mxCell>
        <mxCell id="xnUeOdPYaHrSIj6luqp0-57" style="edgeStyle=orthogonalEdgeStyle;rounded=0;orthogonalLoop=1;jettySize=auto;html=1;exitX=0;exitY=0;exitDx=0;exitDy=0;endArrow=none;endFill=0;" parent="1" source="0AynTZlASmMQr-Qh1-zb-149" edge="1">
          <mxGeometry relative="1" as="geometry">
            <mxPoint x="1241" y="140" as="targetPoint" />
          </mxGeometry>
        </mxCell>
        <mxCell id="xnUeOdPYaHrSIj6luqp0-60" style="edgeStyle=orthogonalEdgeStyle;rounded=0;orthogonalLoop=1;jettySize=auto;html=1;exitX=0.5;exitY=0;exitDx=0;exitDy=0;endArrow=none;endFill=0;" parent="1" source="0AynTZlASmMQr-Qh1-zb-149" edge="1">
          <mxGeometry relative="1" as="geometry">
            <mxPoint x="1301" y="140" as="targetPoint" />
          </mxGeometry>
        </mxCell>
        <mxCell id="xnUeOdPYaHrSIj6luqp0-65" style="edgeStyle=orthogonalEdgeStyle;rounded=0;orthogonalLoop=1;jettySize=auto;html=1;exitX=1;exitY=0;exitDx=0;exitDy=0;entryX=0.5;entryY=1;entryDx=0;entryDy=0;endArrow=none;endFill=0;" parent="1" source="0AynTZlASmMQr-Qh1-zb-149" target="xnUeOdPYaHrSIj6luqp0-64" edge="1">
          <mxGeometry relative="1" as="geometry" />
        </mxCell>
        <mxCell id="cy-2hxa1i92hY7S0N-3x-9" style="edgeStyle=orthogonalEdgeStyle;rounded=0;orthogonalLoop=1;jettySize=auto;html=1;exitX=1;exitY=0.5;exitDx=0;exitDy=0;entryX=0.5;entryY=1;entryDx=0;entryDy=0;endArrow=none;endFill=0;" edge="1" parent="1" source="0AynTZlASmMQr-Qh1-zb-149" target="cy-2hxa1i92hY7S0N-3x-7">
          <mxGeometry relative="1" as="geometry" />
        </mxCell>
        <mxCell id="cy-2hxa1i92hY7S0N-3x-12" style="edgeStyle=orthogonalEdgeStyle;rounded=0;orthogonalLoop=1;jettySize=auto;html=1;exitX=0.5;exitY=1;exitDx=0;exitDy=0;entryX=0.5;entryY=0;entryDx=0;entryDy=0;endArrow=none;endFill=0;" edge="1" parent="1" source="0AynTZlASmMQr-Qh1-zb-149" target="cy-2hxa1i92hY7S0N-3x-10">
          <mxGeometry relative="1" as="geometry" />
        </mxCell>
        <mxCell id="0AynTZlASmMQr-Qh1-zb-149" value="ESTÚDIO DE PUBLICAÇÃO" style="rounded=0;whiteSpace=wrap;html=1;" parent="1" vertex="1">
          <mxGeometry x="1240" y="150" width="120" height="60" as="geometry" />
        </mxCell>
        <mxCell id="xnUeOdPYaHrSIj6luqp0-35" style="edgeStyle=orthogonalEdgeStyle;rounded=0;orthogonalLoop=1;jettySize=auto;html=1;exitX=0;exitY=1;exitDx=0;exitDy=0;endArrow=none;endFill=0;startArrow=none;" parent="1" source="xnUeOdPYaHrSIj6luqp0-36" edge="1">
          <mxGeometry relative="1" as="geometry">
            <mxPoint x="1241" y="580" as="targetPoint" />
          </mxGeometry>
        </mxCell>
        <mxCell id="xnUeOdPYaHrSIj6luqp0-40" style="edgeStyle=orthogonalEdgeStyle;rounded=0;orthogonalLoop=1;jettySize=auto;html=1;exitX=0.5;exitY=1;exitDx=0;exitDy=0;entryX=0.5;entryY=0;entryDx=0;entryDy=0;endArrow=none;endFill=0;" parent="1" source="0AynTZlASmMQr-Qh1-zb-154" target="xnUeOdPYaHrSIj6luqp0-39" edge="1">
          <mxGeometry relative="1" as="geometry" />
        </mxCell>
        <mxCell id="xnUeOdPYaHrSIj6luqp0-43" style="edgeStyle=orthogonalEdgeStyle;rounded=0;orthogonalLoop=1;jettySize=auto;html=1;exitX=1;exitY=1;exitDx=0;exitDy=0;entryX=0.5;entryY=0;entryDx=0;entryDy=0;endArrow=none;endFill=0;" parent="1" source="0AynTZlASmMQr-Qh1-zb-154" target="xnUeOdPYaHrSIj6luqp0-42" edge="1">
          <mxGeometry relative="1" as="geometry" />
        </mxCell>
        <mxCell id="0AynTZlASmMQr-Qh1-zb-154" value="DUBLADORES" style="rounded=0;whiteSpace=wrap;html=1;" parent="1" vertex="1">
          <mxGeometry x="1241" y="500" width="120" height="60" as="geometry" />
        </mxCell>
        <mxCell id="xnUeOdPYaHrSIj6luqp0-45" style="edgeStyle=orthogonalEdgeStyle;rounded=0;orthogonalLoop=1;jettySize=auto;html=1;exitX=0;exitY=0;exitDx=0;exitDy=0;endArrow=none;endFill=0;startArrow=none;" parent="1" source="xnUeOdPYaHrSIj6luqp0-47" edge="1">
          <mxGeometry relative="1" as="geometry">
            <mxPoint x="1460" y="320" as="targetPoint" />
          </mxGeometry>
        </mxCell>
        <mxCell id="xnUeOdPYaHrSIj6luqp0-51" style="edgeStyle=orthogonalEdgeStyle;rounded=0;orthogonalLoop=1;jettySize=auto;html=1;exitX=0.5;exitY=0;exitDx=0;exitDy=0;entryX=0.5;entryY=1;entryDx=0;entryDy=0;endArrow=none;endFill=0;" parent="1" source="0AynTZlASmMQr-Qh1-zb-156" target="xnUeOdPYaHrSIj6luqp0-50" edge="1">
          <mxGeometry relative="1" as="geometry" />
        </mxCell>
        <mxCell id="xnUeOdPYaHrSIj6luqp0-54" style="edgeStyle=orthogonalEdgeStyle;rounded=0;orthogonalLoop=1;jettySize=auto;html=1;exitX=1;exitY=0;exitDx=0;exitDy=0;entryX=0.5;entryY=1;entryDx=0;entryDy=0;endArrow=none;endFill=0;" parent="1" source="0AynTZlASmMQr-Qh1-zb-156" target="xnUeOdPYaHrSIj6luqp0-53" edge="1">
          <mxGeometry relative="1" as="geometry" />
        </mxCell>
        <mxCell id="0AynTZlASmMQr-Qh1-zb-156" value="EQUIPE DE ANIMADORES" style="rounded=0;whiteSpace=wrap;html=1;" parent="1" vertex="1">
          <mxGeometry x="1460" y="350" width="120" height="60" as="geometry" />
        </mxCell>
        <mxCell id="0AynTZlASmMQr-Qh1-zb-166" value="" style="ellipse;whiteSpace=wrap;html=1;aspect=fixed;fillColor=#000000;" parent="1" vertex="1">
          <mxGeometry x="580" y="-320" width="20" height="20" as="geometry" />
        </mxCell>
        <mxCell id="0AynTZlASmMQr-Qh1-zb-168" style="edgeStyle=orthogonalEdgeStyle;rounded=0;orthogonalLoop=1;jettySize=auto;html=1;exitX=0.5;exitY=1;exitDx=0;exitDy=0;endArrow=none;endFill=0;" parent="1" source="0AynTZlASmMQr-Qh1-zb-167" target="0AynTZlASmMQr-Qh1-zb-128" edge="1">
          <mxGeometry relative="1" as="geometry" />
        </mxCell>
        <mxCell id="0AynTZlASmMQr-Qh1-zb-167" value="" style="ellipse;whiteSpace=wrap;html=1;aspect=fixed;" parent="1" vertex="1">
          <mxGeometry x="610" y="-320" width="20" height="20" as="geometry" />
        </mxCell>
        <mxCell id="0AynTZlASmMQr-Qh1-zb-176" style="edgeStyle=orthogonalEdgeStyle;rounded=0;orthogonalLoop=1;jettySize=auto;html=1;exitX=0;exitY=0.5;exitDx=0;exitDy=0;endArrow=none;endFill=0;" parent="1" source="0AynTZlASmMQr-Qh1-zb-170" edge="1">
          <mxGeometry relative="1" as="geometry">
            <mxPoint x="650" y="-300" as="targetPoint" />
          </mxGeometry>
        </mxCell>
        <mxCell id="0AynTZlASmMQr-Qh1-zb-170" value="" style="ellipse;whiteSpace=wrap;html=1;aspect=fixed;" parent="1" vertex="1">
          <mxGeometry x="660" y="-320" width="20" height="20" as="geometry" />
        </mxCell>
        <mxCell id="0AynTZlASmMQr-Qh1-zb-171" value="ID" style="text;html=1;strokeColor=none;fillColor=none;align=center;verticalAlign=middle;whiteSpace=wrap;rounded=0;" parent="1" vertex="1">
          <mxGeometry x="580" y="-340" width="20" height="20" as="geometry" />
        </mxCell>
        <mxCell id="0AynTZlASmMQr-Qh1-zb-172" value="NOME" style="text;html=1;strokeColor=none;fillColor=none;align=center;verticalAlign=middle;whiteSpace=wrap;rounded=0;" parent="1" vertex="1">
          <mxGeometry x="605" y="-340" width="30" height="20" as="geometry" />
        </mxCell>
        <mxCell id="0AynTZlASmMQr-Qh1-zb-174" value="DESCRIÇÃO" style="text;html=1;strokeColor=none;fillColor=none;align=center;verticalAlign=middle;whiteSpace=wrap;rounded=0;" parent="1" vertex="1">
          <mxGeometry x="660" y="-345" width="60" height="30" as="geometry" />
        </mxCell>
        <mxCell id="0AynTZlASmMQr-Qh1-zb-177" value="NICK" style="text;html=1;strokeColor=none;fillColor=none;align=center;verticalAlign=middle;whiteSpace=wrap;rounded=0;" parent="1" vertex="1">
          <mxGeometry x="210" y="-150" width="40" height="20" as="geometry" />
        </mxCell>
        <mxCell id="0AynTZlASmMQr-Qh1-zb-178" value="" style="ellipse;whiteSpace=wrap;html=1;aspect=fixed;fillColor=#000000;" parent="1" vertex="1">
          <mxGeometry x="220" y="-130" width="20" height="20" as="geometry" />
        </mxCell>
        <mxCell id="0AynTZlASmMQr-Qh1-zb-180" value="" style="ellipse;whiteSpace=wrap;html=1;aspect=fixed;" parent="1" vertex="1">
          <mxGeometry x="280" y="-130" width="20" height="20" as="geometry" />
        </mxCell>
        <mxCell id="0AynTZlASmMQr-Qh1-zb-182" value="NOME" style="text;html=1;strokeColor=none;fillColor=none;align=center;verticalAlign=middle;whiteSpace=wrap;rounded=0;" parent="1" vertex="1">
          <mxGeometry x="260" y="-155" width="60" height="30" as="geometry" />
        </mxCell>
        <mxCell id="0AynTZlASmMQr-Qh1-zb-184" value="" style="ellipse;whiteSpace=wrap;html=1;aspect=fixed;" parent="1" vertex="1">
          <mxGeometry x="330" y="-130" width="20" height="20" as="geometry" />
        </mxCell>
        <mxCell id="0AynTZlASmMQr-Qh1-zb-185" value="GÊNERO" style="text;html=1;strokeColor=none;fillColor=none;align=center;verticalAlign=middle;whiteSpace=wrap;rounded=0;" parent="1" vertex="1">
          <mxGeometry x="310" y="-155" width="60" height="30" as="geometry" />
        </mxCell>
        <mxCell id="0AynTZlASmMQr-Qh1-zb-187" value="" style="ellipse;whiteSpace=wrap;html=1;aspect=fixed;" parent="1" vertex="1">
          <mxGeometry x="400" y="-130" width="20" height="20" as="geometry" />
        </mxCell>
        <mxCell id="0AynTZlASmMQr-Qh1-zb-189" value="DATA DE NASCIMENTO" style="text;html=1;strokeColor=none;fillColor=none;align=center;verticalAlign=middle;whiteSpace=wrap;rounded=0;" parent="1" vertex="1">
          <mxGeometry x="380" y="-160" width="60" height="30" as="geometry" />
        </mxCell>
        <mxCell id="0AynTZlASmMQr-Qh1-zb-191" value="" style="ellipse;whiteSpace=wrap;html=1;aspect=fixed;fillColor=#000000;" parent="1" vertex="1">
          <mxGeometry x="680" y="170" width="20" height="20" as="geometry" />
        </mxCell>
        <mxCell id="0AynTZlASmMQr-Qh1-zb-195" value="TÍTULO" style="text;html=1;strokeColor=none;fillColor=none;align=center;verticalAlign=middle;whiteSpace=wrap;rounded=0;" parent="1" vertex="1">
          <mxGeometry x="660" y="150" width="60" height="30" as="geometry" />
        </mxCell>
        <mxCell id="0AynTZlASmMQr-Qh1-zb-196" value="DESCRIÇÃO" style="text;html=1;strokeColor=none;fillColor=none;align=center;verticalAlign=middle;whiteSpace=wrap;rounded=0;" parent="1" vertex="1">
          <mxGeometry x="810" y="150" width="60" height="30" as="geometry" />
        </mxCell>
        <mxCell id="0AynTZlASmMQr-Qh1-zb-198" value="" style="ellipse;whiteSpace=wrap;html=1;aspect=fixed;" parent="1" vertex="1">
          <mxGeometry x="827" y="170" width="20" height="20" as="geometry" />
        </mxCell>
        <mxCell id="0AynTZlASmMQr-Qh1-zb-202" value="STATUS" style="text;html=1;strokeColor=none;fillColor=none;align=center;verticalAlign=middle;whiteSpace=wrap;rounded=0;" parent="1" vertex="1">
          <mxGeometry x="710" y="150" width="60" height="30" as="geometry" />
        </mxCell>
        <mxCell id="0AynTZlASmMQr-Qh1-zb-204" value="" style="ellipse;whiteSpace=wrap;html=1;aspect=fixed;" parent="1" vertex="1">
          <mxGeometry x="730" y="170" width="20" height="20" as="geometry" />
        </mxCell>
        <mxCell id="0AynTZlASmMQr-Qh1-zb-210" value="" style="ellipse;whiteSpace=wrap;html=1;aspect=fixed;fillColor=#000000;" parent="1" vertex="1">
          <mxGeometry x="680" y="-160" width="20" height="20" as="geometry" />
        </mxCell>
        <mxCell id="0AynTZlASmMQr-Qh1-zb-211" value="" style="edgeStyle=orthogonalEdgeStyle;rounded=0;orthogonalLoop=1;jettySize=auto;html=1;exitX=0;exitY=0;exitDx=0;exitDy=0;endArrow=none;endFill=0;" parent="1" source="0AynTZlASmMQr-Qh1-zb-91" target="0AynTZlASmMQr-Qh1-zb-210" edge="1">
          <mxGeometry relative="1" as="geometry">
            <mxPoint x="690" y="-150" as="targetPoint" />
            <mxPoint x="690" y="-130" as="sourcePoint" />
          </mxGeometry>
        </mxCell>
        <mxCell id="0AynTZlASmMQr-Qh1-zb-212" value="NÚMERO DE IDENTIFICAÇÃO" style="text;html=1;strokeColor=none;fillColor=none;align=center;verticalAlign=middle;whiteSpace=wrap;rounded=0;" parent="1" vertex="1">
          <mxGeometry x="660" y="-190" width="60" height="30" as="geometry" />
        </mxCell>
        <mxCell id="0AynTZlASmMQr-Qh1-zb-214" value="DATA DE ENCERRAMENTO" style="text;html=1;strokeColor=none;fillColor=none;align=center;verticalAlign=middle;whiteSpace=wrap;rounded=0;" parent="1" vertex="1">
          <mxGeometry x="810" y="-190" width="60" height="30" as="geometry" />
        </mxCell>
        <mxCell id="0AynTZlASmMQr-Qh1-zb-215" value="" style="ellipse;whiteSpace=wrap;html=1;aspect=fixed;" parent="1" vertex="1">
          <mxGeometry x="830" y="-160" width="20" height="20" as="geometry" />
        </mxCell>
        <mxCell id="0AynTZlASmMQr-Qh1-zb-218" value="" style="ellipse;whiteSpace=wrap;html=1;aspect=fixed;" parent="1" vertex="1">
          <mxGeometry x="760" y="-185" width="20" height="20" as="geometry" />
        </mxCell>
        <mxCell id="0AynTZlASmMQr-Qh1-zb-220" value="DATA DE PUBLICAÇÃO" style="text;html=1;strokeColor=none;fillColor=none;align=center;verticalAlign=middle;whiteSpace=wrap;rounded=0;" parent="1" vertex="1">
          <mxGeometry x="740" y="-220" width="60" height="30" as="geometry" />
        </mxCell>
        <mxCell id="0AynTZlASmMQr-Qh1-zb-225" value="" style="ellipse;whiteSpace=wrap;html=1;aspect=fixed;" parent="1" vertex="1">
          <mxGeometry x="1231" y="-170" width="20" height="20" as="geometry" />
        </mxCell>
        <mxCell id="0AynTZlASmMQr-Qh1-zb-226" value="TÍTULO" style="text;html=1;strokeColor=none;fillColor=none;align=center;verticalAlign=middle;whiteSpace=wrap;rounded=0;" parent="1" vertex="1">
          <mxGeometry x="1217" y="-195" width="60" height="30" as="geometry" />
        </mxCell>
        <mxCell id="0AynTZlASmMQr-Qh1-zb-227" value="DATA DE PUBLICAÇÃO" style="text;html=1;strokeColor=none;fillColor=none;align=center;verticalAlign=middle;whiteSpace=wrap;rounded=0;" parent="1" vertex="1">
          <mxGeometry x="1330" y="-200" width="60" height="30" as="geometry" />
        </mxCell>
        <mxCell id="0AynTZlASmMQr-Qh1-zb-231" style="edgeStyle=orthogonalEdgeStyle;rounded=0;orthogonalLoop=1;jettySize=auto;html=1;exitX=0.5;exitY=1;exitDx=0;exitDy=0;endArrow=none;endFill=0;" parent="1" source="0AynTZlASmMQr-Qh1-zb-229" edge="1">
          <mxGeometry relative="1" as="geometry">
            <mxPoint x="1360" y="-140" as="targetPoint" />
          </mxGeometry>
        </mxCell>
        <mxCell id="0AynTZlASmMQr-Qh1-zb-229" value="" style="ellipse;whiteSpace=wrap;html=1;aspect=fixed;" parent="1" vertex="1">
          <mxGeometry x="1350" y="-170" width="20" height="20" as="geometry" />
        </mxCell>
        <mxCell id="0AynTZlASmMQr-Qh1-zb-236" value="NÚMERO DE IDENTIFICAÇÃO" style="text;html=1;strokeColor=none;fillColor=none;align=center;verticalAlign=middle;whiteSpace=wrap;rounded=0;" parent="1" vertex="1">
          <mxGeometry x="1270" y="-230" width="60" height="30" as="geometry" />
        </mxCell>
        <mxCell id="0AynTZlASmMQr-Qh1-zb-237" value="" style="ellipse;whiteSpace=wrap;html=1;aspect=fixed;fillColor=#000000;" parent="1" vertex="1">
          <mxGeometry x="1290" y="-200" width="20" height="20" as="geometry" />
        </mxCell>
        <mxCell id="xnUeOdPYaHrSIj6luqp0-3" value="" style="ellipse;whiteSpace=wrap;html=1;aspect=fixed;fillColor=#000000;" parent="1" vertex="1">
          <mxGeometry x="680" y="430" width="20" height="20" as="geometry" />
        </mxCell>
        <mxCell id="xnUeOdPYaHrSIj6luqp0-4" value="" style="edgeStyle=orthogonalEdgeStyle;rounded=0;orthogonalLoop=1;jettySize=auto;html=1;exitX=0;exitY=1;exitDx=0;exitDy=0;endArrow=none;endFill=0;" parent="1" source="0AynTZlASmMQr-Qh1-zb-74" target="xnUeOdPYaHrSIj6luqp0-3" edge="1">
          <mxGeometry relative="1" as="geometry">
            <mxPoint x="690" y="450" as="targetPoint" />
            <mxPoint x="690" y="410" as="sourcePoint" />
          </mxGeometry>
        </mxCell>
        <mxCell id="xnUeOdPYaHrSIj6luqp0-5" value="TÍTULO" style="text;html=1;strokeColor=none;fillColor=none;align=center;verticalAlign=middle;whiteSpace=wrap;rounded=0;" parent="1" vertex="1">
          <mxGeometry x="660" y="440" width="60" height="30" as="geometry" />
        </mxCell>
        <mxCell id="xnUeOdPYaHrSIj6luqp0-6" value="" style="ellipse;whiteSpace=wrap;html=1;aspect=fixed;" parent="1" vertex="1">
          <mxGeometry x="730" y="430" width="20" height="20" as="geometry" />
        </mxCell>
        <mxCell id="xnUeOdPYaHrSIj6luqp0-8" value="STATUS" style="text;html=1;strokeColor=none;fillColor=none;align=center;verticalAlign=middle;whiteSpace=wrap;rounded=0;" parent="1" vertex="1">
          <mxGeometry x="710" y="440" width="60" height="30" as="geometry" />
        </mxCell>
        <mxCell id="xnUeOdPYaHrSIj6luqp0-9" value="" style="ellipse;whiteSpace=wrap;html=1;aspect=fixed;" parent="1" vertex="1">
          <mxGeometry x="800" y="430" width="20" height="20" as="geometry" />
        </mxCell>
        <mxCell id="xnUeOdPYaHrSIj6luqp0-11" value="STATUS" style="text;html=1;strokeColor=none;fillColor=none;align=center;verticalAlign=middle;whiteSpace=wrap;rounded=0;" parent="1" vertex="1">
          <mxGeometry x="780" y="440" width="60" height="30" as="geometry" />
        </mxCell>
        <mxCell id="xnUeOdPYaHrSIj6luqp0-12" value="" style="ellipse;whiteSpace=wrap;html=1;aspect=fixed;fillColor=#000000;" parent="1" vertex="1">
          <mxGeometry x="680" y="720" width="20" height="20" as="geometry" />
        </mxCell>
        <mxCell id="xnUeOdPYaHrSIj6luqp0-14" value="NÚMERO DE IDENTIFICAÇÃO" style="text;html=1;strokeColor=none;fillColor=none;align=center;verticalAlign=middle;whiteSpace=wrap;rounded=0;" parent="1" vertex="1">
          <mxGeometry x="660" y="740" width="60" height="30" as="geometry" />
        </mxCell>
        <mxCell id="xnUeOdPYaHrSIj6luqp0-16" value="" style="ellipse;whiteSpace=wrap;html=1;aspect=fixed;" parent="1" vertex="1">
          <mxGeometry x="740" y="760" width="20" height="20" as="geometry" />
        </mxCell>
        <mxCell id="xnUeOdPYaHrSIj6luqp0-17" value="" style="edgeStyle=orthogonalEdgeStyle;rounded=0;orthogonalLoop=1;jettySize=auto;html=1;exitX=0.5;exitY=1;exitDx=0;exitDy=0;endArrow=none;endFill=0;" parent="1" source="0AynTZlASmMQr-Qh1-zb-84" target="xnUeOdPYaHrSIj6luqp0-16" edge="1">
          <mxGeometry relative="1" as="geometry">
            <mxPoint x="750" y="780" as="targetPoint" />
            <mxPoint x="750" y="700" as="sourcePoint" />
          </mxGeometry>
        </mxCell>
        <mxCell id="xnUeOdPYaHrSIj6luqp0-18" value="DATA DE PUBLICAÇÃO" style="text;html=1;strokeColor=none;fillColor=none;align=center;verticalAlign=middle;whiteSpace=wrap;rounded=0;" parent="1" vertex="1">
          <mxGeometry x="720" y="780" width="60" height="30" as="geometry" />
        </mxCell>
        <mxCell id="xnUeOdPYaHrSIj6luqp0-19" value="DATA DE ENCERRAMENTO" style="text;html=1;strokeColor=none;fillColor=none;align=center;verticalAlign=middle;whiteSpace=wrap;rounded=0;" parent="1" vertex="1">
          <mxGeometry x="780" y="740" width="60" height="30" as="geometry" />
        </mxCell>
        <mxCell id="xnUeOdPYaHrSIj6luqp0-21" value="" style="ellipse;whiteSpace=wrap;html=1;aspect=fixed;" parent="1" vertex="1">
          <mxGeometry x="800" y="720" width="20" height="20" as="geometry" />
        </mxCell>
        <mxCell id="xnUeOdPYaHrSIj6luqp0-22" value="" style="edgeStyle=orthogonalEdgeStyle;rounded=0;orthogonalLoop=1;jettySize=auto;html=1;exitX=1;exitY=1;exitDx=0;exitDy=0;endArrow=none;endFill=0;" parent="1" source="0AynTZlASmMQr-Qh1-zb-84" target="xnUeOdPYaHrSIj6luqp0-21" edge="1">
          <mxGeometry relative="1" as="geometry">
            <mxPoint x="810" y="730" as="targetPoint" />
            <mxPoint x="810" y="700" as="sourcePoint" />
          </mxGeometry>
        </mxCell>
        <mxCell id="xnUeOdPYaHrSIj6luqp0-23" value="" style="ellipse;whiteSpace=wrap;html=1;aspect=fixed;fillColor=#000000;" parent="1" vertex="1">
          <mxGeometry x="1090" y="730" width="20" height="20" as="geometry" />
        </mxCell>
        <mxCell id="xnUeOdPYaHrSIj6luqp0-26" value="NÚMERO DE IDENTIFICAÇÃO" style="text;html=1;strokeColor=none;fillColor=none;align=center;verticalAlign=middle;whiteSpace=wrap;rounded=0;" parent="1" vertex="1">
          <mxGeometry x="1070" y="750" width="60" height="30" as="geometry" />
        </mxCell>
        <mxCell id="xnUeOdPYaHrSIj6luqp0-28" value="" style="ellipse;whiteSpace=wrap;html=1;aspect=fixed;" parent="1" vertex="1">
          <mxGeometry x="1147" y="710" width="20" height="20" as="geometry" />
        </mxCell>
        <mxCell id="xnUeOdPYaHrSIj6luqp0-29" value="TÍTULO" style="text;html=1;strokeColor=none;fillColor=none;align=center;verticalAlign=middle;whiteSpace=wrap;rounded=0;" parent="1" vertex="1">
          <mxGeometry x="1127" y="725" width="60" height="30" as="geometry" />
        </mxCell>
        <mxCell id="xnUeOdPYaHrSIj6luqp0-31" value="DATA DE PUBLICAÇÃO" style="text;html=1;strokeColor=none;fillColor=none;align=center;verticalAlign=middle;whiteSpace=wrap;rounded=0;" parent="1" vertex="1">
          <mxGeometry x="1191" y="750" width="60" height="30" as="geometry" />
        </mxCell>
        <mxCell id="xnUeOdPYaHrSIj6luqp0-33" value="" style="ellipse;whiteSpace=wrap;html=1;aspect=fixed;" parent="1" vertex="1">
          <mxGeometry x="1210" y="735" width="20" height="20" as="geometry" />
        </mxCell>
        <mxCell id="xnUeOdPYaHrSIj6luqp0-36" value="" style="ellipse;whiteSpace=wrap;html=1;aspect=fixed;fillColor=#000000;" parent="1" vertex="1">
          <mxGeometry x="1231" y="570" width="20" height="20" as="geometry" />
        </mxCell>
        <mxCell id="xnUeOdPYaHrSIj6luqp0-37" value="" style="edgeStyle=orthogonalEdgeStyle;rounded=0;orthogonalLoop=1;jettySize=auto;html=1;exitX=0;exitY=1;exitDx=0;exitDy=0;endArrow=none;endFill=0;" parent="1" source="0AynTZlASmMQr-Qh1-zb-154" target="xnUeOdPYaHrSIj6luqp0-36" edge="1">
          <mxGeometry relative="1" as="geometry">
            <mxPoint x="1241" y="580" as="targetPoint" />
            <mxPoint x="1241" y="560" as="sourcePoint" />
          </mxGeometry>
        </mxCell>
        <mxCell id="xnUeOdPYaHrSIj6luqp0-38" value="E-MAIL" style="text;html=1;strokeColor=none;fillColor=none;align=center;verticalAlign=middle;whiteSpace=wrap;rounded=0;" parent="1" vertex="1">
          <mxGeometry x="1211" y="590" width="60" height="30" as="geometry" />
        </mxCell>
        <mxCell id="xnUeOdPYaHrSIj6luqp0-39" value="" style="ellipse;whiteSpace=wrap;html=1;aspect=fixed;" parent="1" vertex="1">
          <mxGeometry x="1291" y="575" width="20" height="20" as="geometry" />
        </mxCell>
        <mxCell id="xnUeOdPYaHrSIj6luqp0-41" value="NOME COMPLETO" style="text;html=1;strokeColor=none;fillColor=none;align=center;verticalAlign=middle;whiteSpace=wrap;rounded=0;" parent="1" vertex="1">
          <mxGeometry x="1271" y="595" width="60" height="30" as="geometry" />
        </mxCell>
        <mxCell id="xnUeOdPYaHrSIj6luqp0-42" value="" style="ellipse;whiteSpace=wrap;html=1;aspect=fixed;" parent="1" vertex="1">
          <mxGeometry x="1350" y="575" width="20" height="20" as="geometry" />
        </mxCell>
        <mxCell id="xnUeOdPYaHrSIj6luqp0-44" value="TELEFONE DE CONTATO" style="text;html=1;strokeColor=none;fillColor=none;align=center;verticalAlign=middle;whiteSpace=wrap;rounded=0;" parent="1" vertex="1">
          <mxGeometry x="1331" y="600" width="60" height="30" as="geometry" />
        </mxCell>
        <mxCell id="xnUeOdPYaHrSIj6luqp0-47" value="" style="ellipse;whiteSpace=wrap;html=1;aspect=fixed;fillColor=#000000;" parent="1" vertex="1">
          <mxGeometry x="1450" y="320" width="20" height="20" as="geometry" />
        </mxCell>
        <mxCell id="xnUeOdPYaHrSIj6luqp0-48" value="" style="edgeStyle=orthogonalEdgeStyle;rounded=0;orthogonalLoop=1;jettySize=auto;html=1;exitX=0;exitY=0;exitDx=0;exitDy=0;endArrow=none;endFill=0;" parent="1" source="0AynTZlASmMQr-Qh1-zb-156" target="xnUeOdPYaHrSIj6luqp0-47" edge="1">
          <mxGeometry relative="1" as="geometry">
            <mxPoint x="1460" y="320" as="targetPoint" />
            <mxPoint x="1460" y="350" as="sourcePoint" />
          </mxGeometry>
        </mxCell>
        <mxCell id="xnUeOdPYaHrSIj6luqp0-49" value="ID DA EQUIPE" style="text;html=1;strokeColor=none;fillColor=none;align=center;verticalAlign=middle;whiteSpace=wrap;rounded=0;" parent="1" vertex="1">
          <mxGeometry x="1430" y="290" width="60" height="30" as="geometry" />
        </mxCell>
        <mxCell id="xnUeOdPYaHrSIj6luqp0-50" value="" style="ellipse;whiteSpace=wrap;html=1;aspect=fixed;" parent="1" vertex="1">
          <mxGeometry x="1510" y="320" width="20" height="20" as="geometry" />
        </mxCell>
        <mxCell id="xnUeOdPYaHrSIj6luqp0-52" value="NOME DA EQUPE" style="text;html=1;strokeColor=none;fillColor=none;align=center;verticalAlign=middle;whiteSpace=wrap;rounded=0;" parent="1" vertex="1">
          <mxGeometry x="1490" y="290" width="60" height="30" as="geometry" />
        </mxCell>
        <mxCell id="xnUeOdPYaHrSIj6luqp0-53" value="" style="ellipse;whiteSpace=wrap;html=1;aspect=fixed;" parent="1" vertex="1">
          <mxGeometry x="1590" y="320" width="20" height="20" as="geometry" />
        </mxCell>
        <mxCell id="xnUeOdPYaHrSIj6luqp0-55" value="TELEFONE DE CONTATO" style="text;html=1;strokeColor=none;fillColor=none;align=center;verticalAlign=middle;whiteSpace=wrap;rounded=0;" parent="1" vertex="1">
          <mxGeometry x="1569" y="290" width="60" height="30" as="geometry" />
        </mxCell>
        <mxCell id="xnUeOdPYaHrSIj6luqp0-58" value="" style="ellipse;whiteSpace=wrap;html=1;aspect=fixed;fillColor=#000000;" parent="1" vertex="1">
          <mxGeometry x="1230" y="120" width="20" height="20" as="geometry" />
        </mxCell>
        <mxCell id="xnUeOdPYaHrSIj6luqp0-59" value="CNPJ" style="text;html=1;strokeColor=none;fillColor=none;align=center;verticalAlign=middle;whiteSpace=wrap;rounded=0;" parent="1" vertex="1">
          <mxGeometry x="1211" y="100" width="60" height="30" as="geometry" />
        </mxCell>
        <mxCell id="xnUeOdPYaHrSIj6luqp0-61" value="" style="ellipse;whiteSpace=wrap;html=1;aspect=fixed;" parent="1" vertex="1">
          <mxGeometry x="1291" y="120" width="20" height="20" as="geometry" />
        </mxCell>
        <mxCell id="xnUeOdPYaHrSIj6luqp0-62" value="NOME" style="text;html=1;strokeColor=none;fillColor=none;align=center;verticalAlign=middle;whiteSpace=wrap;rounded=0;" parent="1" vertex="1">
          <mxGeometry x="1270" y="100" width="60" height="30" as="geometry" />
        </mxCell>
        <mxCell id="xnUeOdPYaHrSIj6luqp0-64" value="" style="ellipse;whiteSpace=wrap;html=1;aspect=fixed;" parent="1" vertex="1">
          <mxGeometry x="1350" y="120" width="20" height="20" as="geometry" />
        </mxCell>
        <mxCell id="xnUeOdPYaHrSIj6luqp0-66" value="ENDEREÇO" style="text;html=1;strokeColor=none;fillColor=none;align=center;verticalAlign=middle;whiteSpace=wrap;rounded=0;" parent="1" vertex="1">
          <mxGeometry x="1331" y="100" width="60" height="30" as="geometry" />
        </mxCell>
        <mxCell id="xnUeOdPYaHrSIj6luqp0-68" value="" style="ellipse;whiteSpace=wrap;html=1;aspect=fixed;fillColor=#000000;" parent="1" vertex="1">
          <mxGeometry x="1468" y="-145" width="20" height="20" as="geometry" />
        </mxCell>
        <mxCell id="xnUeOdPYaHrSIj6luqp0-69" value="" style="edgeStyle=orthogonalEdgeStyle;rounded=0;orthogonalLoop=1;jettySize=auto;html=1;exitX=0;exitY=0;exitDx=0;exitDy=0;endArrow=none;endFill=0;" parent="1" source="0AynTZlASmMQr-Qh1-zb-148" target="xnUeOdPYaHrSIj6luqp0-68" edge="1">
          <mxGeometry relative="1" as="geometry">
            <mxPoint x="1479" y="-135" as="targetPoint" />
            <mxPoint x="1479" y="-115" as="sourcePoint" />
          </mxGeometry>
        </mxCell>
        <mxCell id="xnUeOdPYaHrSIj6luqp0-70" value="E-MAIL" style="text;html=1;strokeColor=none;fillColor=none;align=center;verticalAlign=middle;whiteSpace=wrap;rounded=0;" parent="1" vertex="1">
          <mxGeometry x="1448" y="-165" width="60" height="30" as="geometry" />
        </mxCell>
        <mxCell id="xnUeOdPYaHrSIj6luqp0-71" value="" style="ellipse;whiteSpace=wrap;html=1;aspect=fixed;" parent="1" vertex="1">
          <mxGeometry x="1529" y="-145" width="20" height="20" as="geometry" />
        </mxCell>
        <mxCell id="xnUeOdPYaHrSIj6luqp0-74" value="NOME COMPLETO" style="text;html=1;strokeColor=none;fillColor=none;align=center;verticalAlign=middle;whiteSpace=wrap;rounded=0;" parent="1" vertex="1">
          <mxGeometry x="1508" y="-175" width="60" height="30" as="geometry" />
        </mxCell>
        <mxCell id="xnUeOdPYaHrSIj6luqp0-75" value="" style="ellipse;whiteSpace=wrap;html=1;aspect=fixed;" parent="1" vertex="1">
          <mxGeometry x="1588" y="-145" width="20" height="20" as="geometry" />
        </mxCell>
        <mxCell id="xnUeOdPYaHrSIj6luqp0-78" value="TELEFONE DE CONTATO" style="text;html=1;strokeColor=none;fillColor=none;align=center;verticalAlign=middle;whiteSpace=wrap;rounded=0;" parent="1" vertex="1">
          <mxGeometry x="1569" y="-175" width="60" height="30" as="geometry" />
        </mxCell>
        <mxCell id="xnUeOdPYaHrSIj6luqp0-80" value="1...N" style="text;html=1;strokeColor=none;fillColor=none;align=center;verticalAlign=middle;whiteSpace=wrap;rounded=0;" parent="1" vertex="1">
          <mxGeometry x="300" y="-180" width="60" height="30" as="geometry" />
        </mxCell>
        <mxCell id="xnUeOdPYaHrSIj6luqp0-81" value="0...N" style="text;html=1;strokeColor=none;fillColor=none;align=center;verticalAlign=middle;whiteSpace=wrap;rounded=0;" parent="1" vertex="1">
          <mxGeometry x="510" y="-270" width="60" height="30" as="geometry" />
        </mxCell>
        <mxCell id="xnUeOdPYaHrSIj6luqp0-82" value="0...N" style="text;html=1;strokeColor=none;fillColor=none;align=center;verticalAlign=middle;whiteSpace=wrap;rounded=0;" parent="1" vertex="1">
          <mxGeometry x="640" y="350" width="60" height="30" as="geometry" />
        </mxCell>
        <mxCell id="xnUeOdPYaHrSIj6luqp0-83" value="1...N" style="text;html=1;strokeColor=none;fillColor=none;align=center;verticalAlign=middle;whiteSpace=wrap;rounded=0;" parent="1" vertex="1">
          <mxGeometry x="300" y="-30" width="60" height="30" as="geometry" />
        </mxCell>
        <mxCell id="xnUeOdPYaHrSIj6luqp0-84" value="1...N" style="text;html=1;strokeColor=none;fillColor=none;align=center;verticalAlign=middle;whiteSpace=wrap;rounded=0;" parent="1" vertex="1">
          <mxGeometry x="740" y="610" width="60" height="30" as="geometry" />
        </mxCell>
        <mxCell id="xnUeOdPYaHrSIj6luqp0-85" value="1" style="text;html=1;strokeColor=none;fillColor=none;align=center;verticalAlign=middle;whiteSpace=wrap;rounded=0;" parent="1" vertex="1">
          <mxGeometry x="787" y="670" width="60" height="30" as="geometry" />
        </mxCell>
        <mxCell id="xnUeOdPYaHrSIj6luqp0-86" value="1...N" style="text;html=1;strokeColor=none;fillColor=none;align=center;verticalAlign=middle;whiteSpace=wrap;rounded=0;" parent="1" vertex="1">
          <mxGeometry x="1050" y="670" width="60" height="30" as="geometry" />
        </mxCell>
        <mxCell id="xnUeOdPYaHrSIj6luqp0-88" value="1...N" style="text;html=1;strokeColor=none;fillColor=none;align=center;verticalAlign=middle;whiteSpace=wrap;rounded=0;" parent="1" vertex="1">
          <mxGeometry x="1251" y="470" width="60" height="30" as="geometry" />
        </mxCell>
        <mxCell id="xnUeOdPYaHrSIj6luqp0-89" value="1...N" style="text;html=1;strokeColor=none;fillColor=none;align=center;verticalAlign=middle;whiteSpace=wrap;rounded=0;" parent="1" vertex="1">
          <mxGeometry x="1410" y="365" width="60" height="30" as="geometry" />
        </mxCell>
        <mxCell id="xnUeOdPYaHrSIj6luqp0-91" value="0...N" style="text;html=1;strokeColor=none;fillColor=none;align=center;verticalAlign=middle;whiteSpace=wrap;rounded=0;" parent="1" vertex="1">
          <mxGeometry x="640" y="210" width="60" height="30" as="geometry" />
        </mxCell>
        <mxCell id="xnUeOdPYaHrSIj6luqp0-92" value="1...N" style="text;html=1;strokeColor=none;fillColor=none;align=center;verticalAlign=middle;whiteSpace=wrap;rounded=0;" parent="1" vertex="1">
          <mxGeometry x="360" y="-90" width="60" height="30" as="geometry" />
        </mxCell>
        <mxCell id="xnUeOdPYaHrSIj6luqp0-94" value="1" style="text;html=1;strokeColor=none;fillColor=none;align=center;verticalAlign=middle;whiteSpace=wrap;rounded=0;" parent="1" vertex="1">
          <mxGeometry x="1200" y="150" width="60" height="30" as="geometry" />
        </mxCell>
        <mxCell id="xnUeOdPYaHrSIj6luqp0-95" value="1...N" style="text;html=1;strokeColor=none;fillColor=none;align=center;verticalAlign=middle;whiteSpace=wrap;rounded=0;" parent="1" vertex="1">
          <mxGeometry x="800" y="210" width="60" height="30" as="geometry" />
        </mxCell>
        <mxCell id="xnUeOdPYaHrSIj6luqp0-96" value="1..N" style="text;html=1;strokeColor=none;fillColor=none;align=center;verticalAlign=middle;whiteSpace=wrap;rounded=0;" parent="1" vertex="1">
          <mxGeometry x="740" y="-75" width="60" height="30" as="geometry" />
        </mxCell>
        <mxCell id="xnUeOdPYaHrSIj6luqp0-97" value="1...N" style="text;html=1;strokeColor=none;fillColor=none;align=center;verticalAlign=middle;whiteSpace=wrap;rounded=0;" parent="1" vertex="1">
          <mxGeometry x="1190" y="-100" width="60" height="30" as="geometry" />
        </mxCell>
        <mxCell id="xnUeOdPYaHrSIj6luqp0-98" value="1" style="text;html=1;strokeColor=none;fillColor=none;align=center;verticalAlign=middle;whiteSpace=wrap;rounded=0;" parent="1" vertex="1">
          <mxGeometry x="800" y="-100" width="60" height="30" as="geometry" />
        </mxCell>
        <mxCell id="xnUeOdPYaHrSIj6luqp0-100" value="1" style="text;html=1;strokeColor=none;fillColor=none;align=center;verticalAlign=middle;whiteSpace=wrap;rounded=0;" parent="1" vertex="1">
          <mxGeometry x="730" y="180" width="60" height="30" as="geometry" />
        </mxCell>
        <mxCell id="xnUeOdPYaHrSIj6luqp0-101" value="1" style="text;html=1;strokeColor=none;fillColor=none;align=center;verticalAlign=middle;whiteSpace=wrap;rounded=0;" parent="1" vertex="1">
          <mxGeometry x="730" y="410" width="60" height="30" as="geometry" />
        </mxCell>
        <mxCell id="xnUeOdPYaHrSIj6luqp0-102" value="1...N" style="text;html=1;strokeColor=none;fillColor=none;align=center;verticalAlign=middle;whiteSpace=wrap;rounded=0;" parent="1" vertex="1">
          <mxGeometry x="1251" y="210" width="60" height="30" as="geometry" />
        </mxCell>
        <mxCell id="cy-2hxa1i92hY7S0N-3x-7" value="TEM" style="rhombus;whiteSpace=wrap;html=1;" vertex="1" parent="1">
          <mxGeometry x="1490" y="60" width="120" height="80" as="geometry" />
        </mxCell>
        <mxCell id="cy-2hxa1i92hY7S0N-3x-13" style="edgeStyle=orthogonalEdgeStyle;rounded=0;orthogonalLoop=1;jettySize=auto;html=1;exitX=1;exitY=0.5;exitDx=0;exitDy=0;entryX=0;entryY=0.25;entryDx=0;entryDy=0;endArrow=none;endFill=0;" edge="1" parent="1" source="cy-2hxa1i92hY7S0N-3x-10" target="0AynTZlASmMQr-Qh1-zb-156">
          <mxGeometry relative="1" as="geometry" />
        </mxCell>
        <mxCell id="cy-2hxa1i92hY7S0N-3x-14" style="edgeStyle=orthogonalEdgeStyle;rounded=0;orthogonalLoop=1;jettySize=auto;html=1;exitX=0.5;exitY=1;exitDx=0;exitDy=0;endArrow=none;endFill=0;" edge="1" parent="1" source="cy-2hxa1i92hY7S0N-3x-10" target="0AynTZlASmMQr-Qh1-zb-154">
          <mxGeometry relative="1" as="geometry" />
        </mxCell>
        <mxCell id="cy-2hxa1i92hY7S0N-3x-10" value="TEM" style="rhombus;whiteSpace=wrap;html=1;" vertex="1" parent="1">
          <mxGeometry x="1241" y="330" width="120" height="80" as="geometry" />
        </mxCell>
        <mxCell id="cy-2hxa1i92hY7S0N-3x-15" value="1...N" style="text;html=1;strokeColor=none;fillColor=none;align=center;verticalAlign=middle;whiteSpace=wrap;rounded=0;" vertex="1" parent="1">
          <mxGeometry x="800" y="365" width="60" height="30" as="geometry" />
        </mxCell>
      </root>
    </mxGraphModel>
  </diagram>
</mxfile>
